<?xml version="1.0" encoding="utf-8"?>
<!-- Generator: Adobe Illustrator 27.1.1, SVG Export Plug-In . SVG Version: 6.00 Build 0)  -->
<svg version="1.1" id="Layer_1" xmlns="http://www.w3.org/2000/svg" xmlns:xlink="http://www.w3.org/1999/xlink" x="0px" y="0px"
	 viewBox="0 0 250 250" style="enable-background:new 0 0 250 250;" xml:space="preserve">
<style type="text/css">
	.st0{fill:none;}
</style>
<path class="st0" d="M250,85.2v33.1h-16.6c-13.2,0-25.8,5.2-35.1,14.6c-9.3,9.3-14.6,22-14.6,35.1v16.6h-32.4v26h-13.1
	c-7,0-13.7,2.8-18.6,7.7c-4.9,4.9-7.7,11.6-7.7,18.6V250H85.6v-13.1c0-7-2.8-13.7-7.7-18.6c-4.9-4.9-11.6-7.7-18.6-7.7H46.2v-26.3
	h13.1c15.1,0,29.5,6.5,39.4,17.9c10-11.4,24.3-17.9,39.4-17.9h12.4V168c0-13.2-5.2-25.8-14.5-35.1c-9.3-9.3-22-14.6-35.1-14.6v0
	H84.4V85.5h-33V68.4c0-9.1-3.6-17.8-10-24.2c-6.4-6.4-15.1-10-24.2-10H0V0h17.1c19.7,0,38.4,8.5,51.3,23.3C81.4,8.5,100.1,0,119.8,0
	h17.1v34.2h-17.1c-9.1,0-17.8,3.6-24.2,10c-6.4,6.4-10,15.1-10,24.2v16.8h15.4c26.1,0.1,50.7,12.4,66.3,33.3
	c15.6-20.9,40.2-33.3,66.3-33.3H250z"/>
</svg>
